<?xml version="1.0" standalone="no"?>
<!DOCTYPE svg PUBLIC "-//W3C//DTD SVG 20010904//EN"
 "http://www.w3.org/TR/2001/REC-SVG-20010904/DTD/svg10.dtd">
<svg version="1.0" xmlns="http://www.w3.org/2000/svg"
 width="700.000000pt" height="700.000000pt" viewBox="0 0 700.000000 700.000000"
 preserveAspectRatio="xMidYMid meet">
<metadata>
Created by potrace 1.14, written by Peter Selinger 2001-2017
</metadata>
<g transform="translate(0.000000,700.000000) scale(0.100000,-0.100000)"
fill="#000000" stroke="none">
<path d="M4374 6971 c-109 -31 -187 -89 -249 -186 -109 -169 -89 -378 49 -532
25 -28 46 -55 46 -59 0 -9 -90 -287 -94 -291 -1 -1 -29 4 -61 12 -79 18 -223
42 -310 52 -90 9 -386 10 -490 1 -206 -18 -449 -76 -661 -156 l-101 -39 -70
141 -70 141 37 55 c49 73 70 130 77 207 24 270 -198 495 -469 476 -219 -14
-399 -208 -400 -430 -1 -125 41 -224 131 -313 87 -86 185 -127 300 -126 l63 1
72 -143 c59 -119 68 -145 56 -152 -61 -35 -235 -159 -316 -227 -98 -81 -247
-229 -314 -311 -19 -24 -45 -56 -58 -70 -62 -72 -198 -295 -273 -447 l-84
-170 -150 50 c-127 42 -150 53 -151 71 -9 173 -143 335 -322 388 -92 27 -271
5 -323 -40 -8 -8 -20 -14 -26 -14 -23 0 -124 -115 -153 -173 -63 -130 -63
-284 2 -398 39 -70 76 -110 146 -160 160 -114 393 -93 544 49 l49 45 57 -18
c31 -10 59 -19 62 -20 12 -2 175 -57 178 -59 1 -2 -6 -41 -17 -87 -11 -46 -22
-102 -26 -124 -3 -23 -8 -52 -10 -65 -20 -97 -27 -455 -12 -600 9 -90 33 -233
53 -315 8 -33 17 -69 19 -80 9 -40 74 -234 93 -277 11 -23 22 -50 24 -58 4
-11 -33 -34 -136 -86 l-140 -72 -55 38 c-31 21 -74 46 -96 55 -53 22 -196 28
-260 11 -325 -86 -439 -479 -209 -722 135 -143 340 -177 517 -88 135 69 226
213 232 365 1 36 5 71 9 78 4 7 53 34 108 61 54 27 105 53 111 59 7 5 23 12
37 15 23 6 31 -2 81 -81 97 -151 180 -253 314 -389 149 -150 235 -221 392
-326 113 -75 356 -205 426 -228 20 -6 37 -17 37 -23 0 -7 -21 -78 -46 -158
-43 -135 -49 -147 -70 -144 -36 4 -157 -39 -206 -73 -54 -37 -123 -112 -148
-163 -87 -169 -52 -379 86 -512 199 -193 520 -156 669 77 109 170 90 379 -49
533 -25 28 -46 55 -46 59 0 9 90 287 95 292 1 2 29 -4 61 -12 54 -14 175 -35
284 -51 91 -13 445 -12 556 1 218 26 468 88 635 159 56 23 81 30 86 22 5 -7
38 -70 74 -141 l66 -130 -32 -45 c-99 -141 -111 -316 -32 -465 120 -226 410
-300 623 -157 38 25 83 66 101 91 18 25 37 50 43 56 23 29 51 143 52 209 0
127 -40 225 -131 315 -85 84 -201 132 -311 127 -20 0 -41 2 -48 7 -19 11 -144
267 -138 282 3 8 10 14 17 14 6 0 55 30 108 67 371 257 637 563 832 958 43 88
79 166 79 172 0 20 20 16 152 -27 68 -22 128 -40 135 -40 17 0 22 -12 34 -77
23 -125 116 -253 227 -311 237 -123 531 -4 618 250 29 85 25 215 -11 302 -29
70 -132 196 -161 196 -8 0 -14 3 -14 8 0 4 -19 16 -42 26 -169 75 -347 46
-485 -78 -28 -25 -54 -46 -59 -46 -4 0 -72 21 -151 47 -131 43 -144 49 -139
67 22 78 53 258 63 361 15 154 9 460 -12 595 -21 133 -64 323 -95 410 -39 111
-75 207 -82 216 -11 15 -2 21 148 97 l130 66 30 -23 c209 -164 517 -105 651
123 58 99 73 245 37 353 -37 112 -135 219 -244 266 -212 91 -463 -3 -562 -209
-31 -63 -49 -149 -44 -201 3 -25 -1 -41 -13 -51 -17 -16 -256 -137 -269 -137
-4 0 -17 14 -27 32 -76 122 -111 171 -194 273 -252 311 -594 566 -967 724
l-51 22 51 152 51 152 35 2 c19 2 58 10 85 19 143 46 256 169 290 318 51 219
-68 433 -285 512 -66 23 -183 26 -256 5z"/>
</g>
</svg>
